<?xml version="1.0" standalone="no"?><!-- Generator: Gravit.io --><svg xmlns="http://www.w3.org/2000/svg" xmlns:xlink="http://www.w3.org/1999/xlink" style="isolation:isolate" viewBox="0 0 256 256" width="256" height="256"><defs><clipPath id="_clipPath_9OlGkCzCcELy2qtEt00vT98hjtwLQQ8H"><rect width="256" height="256"/></clipPath></defs><g clip-path="url(#_clipPath_9OlGkCzCcELy2qtEt00vT98hjtwLQQ8H)"><g id="Group"><g id="Group"><path d="M 155.826 122.435 L 244.87 122.435 C 251.013 122.435 256 127.422 256 133.565 L 256 222.609 C 256 228.752 251.013 233.739 244.87 233.739 L 155.826 233.739 C 149.683 233.739 144.696 228.752 144.696 222.609 L 144.696 133.565 C 144.696 127.422 149.683 122.435 155.826 122.435 Z" style="stroke:none;fill:#4ED460;stroke-miterlimit:10;"/><path d="M 33.391 144.696 L 122.435 144.696 C 128.578 144.696 133.565 149.683 133.565 155.826 L 133.565 244.87 C 133.565 251.013 128.578 256 122.435 256 L 33.391 256 C 27.248 256 22.261 251.013 22.261 244.87 L 22.261 155.826 C 22.261 149.683 27.248 144.696 33.391 144.696 Z" style="stroke:none;fill:#0375F8;stroke-miterlimit:10;"/><path d="M 133.565 0 L 222.609 0 C 228.752 0 233.739 4.987 233.739 11.13 L 233.739 100.174 C 233.739 106.317 228.752 111.304 222.609 111.304 L 133.565 111.304 C 127.422 111.304 122.435 106.317 122.435 100.174 L 122.435 11.13 C 122.435 4.987 127.422 0 133.565 0 Z" style="stroke:none;fill:#FDC704;stroke-miterlimit:10;"/><path d="M 11.13 22.261 L 100.174 22.261 C 106.317 22.261 111.304 27.248 111.304 33.391 L 111.304 122.435 C 111.304 128.578 106.317 133.565 100.174 133.565 L 11.13 133.565 C 4.987 133.565 0 128.578 0 122.435 L 0 33.391 C 0 27.248 4.987 22.261 11.13 22.261 Z" style="stroke:none;fill:#F92C52;stroke-miterlimit:10;"/></g></g></g></svg>